# xmcd CD database file
# Copyright (C) 1995-1998 Ti Kan
#
# Track frame offsets:
#	150
#	34434
#	64277
#	94039
#	124521
#	143824
#	162555
#	196893
#
# Disc length: 3476 seconds
#
# Revision: 1
# Processed by: cddbd v1.4b42PL1 Copyright (c) Steve Scherf et al.
# Submitted via: CDex 1.30Release
#
DISCID=710d9208
DTITLE=Allman Brothers Band - Live - Hammersmith Odeon Theater - 6-25-91 - D
DTITLE=isc 1
DYEAR=1991
DGENRE=Blues
TTITLE0=Don't Want You No More/It's Not My Cross To Bear
TTITLE1=Statesboro Blues
TTITLE2=Blue Sky
TTITLE3=Low Down Dirty Mean
TTITLE4=End Of The Line
TTITLE5=Loaded Dice
TTITLE6=Southbound
TTITLE7=Jessica
EXTD=YEAR: 1991 ID3G:   0
EXTT0=
EXTT1=
EXTT2=
EXTT3=
EXTT4=
EXTT5=
EXTT6=
EXTT7=
PLAYORDER=
